<svg width="114" height="114" viewBox="0 0 114 114" fill="none" xmlns="http://www.w3.org/2000/svg">
<g clip-path="url(#clip0_45_75)">
<path d="M47.9063 16.3565H20.1539C16.0391 16.3565 12.7026 19.6881 12.7026 23.7968V51.5086C12.7026 55.6173 16.0391 58.9489 20.1539 58.9489H23.8832L29.3212 65.4994H41.7243L29.0634 49.4567L28.7983 49.1184H24.1409C23.2596 49.1184 22.5451 48.405 22.5451 47.5249V29.7834V27.7756C22.5451 26.8955 23.2596 26.1821 24.1409 26.1821H43.9192C44.7981 26.1821 45.5101 26.893 45.5126 27.7707V47.5249C45.5126 48.405 44.7981 49.1184 43.9167 49.1184H32.967L40.6932 58.9465H47.9038C52.0186 58.9465 55.355 55.6149 55.355 51.5062V23.7943C55.355 19.6856 52.0186 16.354 47.9038 16.354L47.9063 16.3565Z" fill="#212D33"/>
<path d="M93.8878 42.5655C97.978 42.5655 101.295 39.2535 101.295 35.1693V23.7526C101.295 19.6684 97.978 16.3564 93.8878 16.3564H71.4335V26.1845H89.9425C90.6716 26.1845 91.2608 26.7729 91.2608 27.501V31.4185C91.2608 32.1466 90.6716 32.735 89.9425 32.735H71.598V42.5631H75.2561L88.8573 58.944H101.26L88.3344 42.5631" fill="#212D33"/>
<path d="M47.9063 62.0601H45.515V93.231C45.515 94.1111 44.8006 94.8245 43.9192 94.8245H24.1409C23.2596 94.8245 22.5451 94.1111 22.5451 93.231V62.0601H12.7026V97.2122C12.7026 101.321 16.0391 104.653 20.1539 104.653H47.9063C52.021 104.653 55.3575 101.321 55.3575 97.2122V62.0601H47.9063Z" fill="#FFCC03"/>
<path d="M93.8878 62.0599H68.3155V9.73739H73.0489L63.2997 0L53.5481 9.73739H58.4755V104.586H68.318V71.888H89.9425C90.6716 71.888 91.2609 72.4764 91.2609 73.2045V77.122C91.2609 77.8501 90.6716 78.4384 89.9425 78.4384H71.598V88.2665H93.8878C97.978 88.2665 101.295 84.9545 101.295 80.8703V69.4537C101.295 65.3694 97.978 62.0575 93.8878 62.0575V62.0599Z" fill="#FFCC03"/>
<path d="M40.2464 31.4429H27.912V43.7592H40.2464V31.4429Z" fill="#FFCC03"/>
<path d="M111.302 96.5942V104.839C111.302 108.403 108.397 111.303 104.828 111.303H96.5713V113.997H104.828C109.885 113.997 114.002 109.889 114.002 104.836V96.5918H111.304L111.302 96.5942Z" fill="#212D33"/>
<path d="M111.302 9.32778V17.5722H114V9.32778C114 4.27767 109.885 0.168945 104.825 0.168945H96.5688V2.86315H104.825C108.395 2.86315 111.299 5.76329 111.299 9.32778H111.302Z" fill="#212D33"/>
<path d="M2.69815 17.5722V9.32779C2.69815 5.7633 5.60253 2.86316 9.17225 2.86316H17.4287V0.166504H9.17225C4.11474 0.166504 0 4.27523 0 9.32779V17.5722H2.69815Z" fill="#212D33"/>
<path d="M2.69815 104.841V96.5967H0V104.841C0 109.891 4.11474 114.002 9.17225 114.002H17.4287V111.308H9.17225C5.60253 111.308 2.69815 108.408 2.69815 104.844V104.841Z" fill="#212D33"/>
</g>
<defs>
<clipPath id="clip0_45_75">
<rect width="114" height="114" fill="white"/>
</clipPath>
</defs>
</svg>
