<svg width="141" height="141" viewBox="0 0 141 141" fill="none" xmlns="http://www.w3.org/2000/svg">
<g clip-path="url(#clip0_25_149)">
<path d="M59.2525 20.2303H24.9272C19.8379 20.2303 15.7112 24.351 15.7112 29.4328V63.708C15.7112 68.7898 19.8379 72.9105 24.9272 72.9105H29.5397L36.2657 81.0124H51.6065L35.9469 61.1701L35.6189 60.7517H29.8586C28.7684 60.7517 27.8848 59.8693 27.8848 58.7808V36.8373V34.354C27.8848 33.2654 28.7684 32.3831 29.8586 32.3831H54.3211C55.4082 32.3831 56.2888 33.2624 56.2919 34.3479V58.7808C56.2919 59.8693 55.4082 60.7517 54.3181 60.7517H40.775L50.3311 72.9075H59.2495C64.3388 72.9075 68.4655 68.7868 68.4655 63.705V29.4298C68.4655 24.348 64.3388 20.2273 59.2495 20.2273L59.2525 20.2303Z" fill="#212D33"/>
<path d="M116.124 52.6469C121.183 52.6469 125.286 48.5505 125.286 43.499V29.3784C125.286 24.3269 121.183 20.2305 116.124 20.2305H88.3519V32.3863H111.245C112.146 32.3863 112.875 33.114 112.875 34.0145V38.8599C112.875 39.7604 112.146 40.4881 111.245 40.4881H88.5554V52.6439H93.0799L109.902 72.9046H125.243L109.256 52.6439" fill="#212D33"/>
<path d="M59.2525 76.7583H56.2949V115.312C56.2949 116.4 55.4113 117.283 54.3211 117.283H29.8586C28.7684 117.283 27.8848 116.4 27.8848 115.312V76.7583H15.7112V120.236C15.7112 125.318 19.8379 129.438 24.9272 129.438H59.2525C64.3418 129.438 68.4685 125.318 68.4685 120.236V76.7583H59.2525Z" fill="#FFCC03"/>
<path d="M116.124 76.7583H84.4956V12.0436H90.3501L78.2918 0L66.2306 12.0436H72.325V129.357H84.4986V88.9141H111.245C112.147 88.9141 112.875 89.6418 112.875 90.5424V95.3877C112.875 96.2882 112.147 97.016 111.245 97.016H88.5554V109.172H116.124C121.183 109.172 125.286 105.075 125.286 100.024V85.9032C125.286 80.8517 121.183 76.7553 116.124 76.7553V76.7583Z" fill="#FFCC03"/>
<path d="M49.7784 38.8901H34.5227V54.1235H49.7784V38.8901Z" fill="#FFCC03"/>
<path d="M137.663 119.472V129.669C137.663 134.078 134.071 137.665 129.655 137.665H119.443V140.997H129.655C135.911 140.997 141.003 135.915 141.003 129.666V119.469H137.666L137.663 119.472Z" fill="#212D33"/>
<path d="M137.663 11.5373V21.7343H141V11.5373C141 5.29107 135.911 0.209229 129.652 0.209229H119.44V3.54154H129.652C134.067 3.54154 137.66 7.12854 137.66 11.5373H137.663Z" fill="#212D33"/>
<path d="M3.33719 21.7344V11.5374C3.33719 7.12865 6.92945 3.54164 11.3446 3.54164H21.5566V0.206299H11.3446C5.08929 0.206299 0 5.28814 0 11.5374V21.7344H3.33719Z" fill="#212D33"/>
<path d="M3.33719 129.672V119.475H0V129.672C0 135.918 5.08929 141.003 11.3446 141.003H21.5566V137.671H11.3446C6.92945 137.671 3.33719 134.084 3.33719 129.675V129.672Z" fill="#212D33"/>
</g>
<defs>
<clipPath id="clip0_25_149">
<rect width="141" height="141" fill="white"/>
</clipPath>
</defs>
</svg>
